<svg xmlns="http://www.w3.org/2000/svg" xmlns:xlink="http://www.w3.org/1999/xlink" viewBox="0 0 257.11 257.11"><defs><linearGradient id="a" x1="8.29" y1="1003.63" x2="8.29" y2="1009.87" gradientTransform="matrix(40, 0, 0, -39.78, -39, 40773.22)" gradientUnits="userSpaceOnUse"><stop offset="0" stop-color="#0062e0"/><stop offset="1" stop-color="#19afff"/></linearGradient></defs><title>facebook-icon</title><path d="M271,858.69C210.31,848,163.89,795.12,163.89,731.56c0-70.71,57.85-128.56,128.56-128.56S421,660.85,421,731.56c0,63.56-46.42,116.42-107.13,127.13L306.73,853H278.16Z" transform="translate(-163.89 -603)" style="fill:url(#a)"/><path d="M342.44,767.27l5.71-35.71H313.87v-25c0-10,3.57-17.86,19.28-17.86h16.43V655.85C340.29,654.42,330.3,653,321,653c-29.28,0-50,17.86-50,50v28.57H238.88v35.71H271V858a108.2,108.2,0,0,0,42.85,0v-90.7Z" transform="translate(-163.89 -603)" style="fill:#fff"/></svg>